<svg width="303" height="491" viewBox="0 0 303 491" fill="none" xmlns="http://www.w3.org/2000/svg">
<mask id="mask0_184_56" style="mask-type:luminance" maskUnits="userSpaceOnUse" x="0" y="0" width="303" height="491">
<path d="M302.418 0H0V490.567H302.418V0Z" fill="white"/>
</mask>
<g mask="url(#mask0_184_56)">
<mask id="mask1_184_56" style="mask-type:luminance" maskUnits="userSpaceOnUse" x="-287" y="-1302" width="3265" height="4225">
<path d="M-286.49 -1301.04H2977.51V2922.96H-286.49V-1301.04Z" fill="white"/>
</mask>
<g mask="url(#mask1_184_56)">
<path d="M82.6365 166.828C82.6365 166.828 76.8765 195.025 75.9645 197.452C75.0525 199.878 64.1352 212.31 48.3698 226.262C48.3698 226.262 49.2818 240.817 63.2285 258.71C63.2285 258.71 40.1832 311.772 26.5352 386.06C26.5352 386.06 48.9725 373.628 62.6205 361.5C76.2685 349.372 91.4258 319.356 92.9458 319.046C94.4605 318.742 100.828 348.156 127.207 371.51C153.591 394.854 184.396 399.841 216.967 407.894C243.954 414.566 250.322 425.18 250.322 425.18C244.556 411.228 222.732 381.82 209.687 353.617C196.652 325.414 180.882 283.873 180.279 282.662C179.666 281.446 161.778 219.59 138.428 199.878L147.831 187.446C147.831 187.446 159.959 203.217 166.935 222.625C173.906 242.033 180.882 264.47 180.882 264.47V267.196C180.882 267.196 186.642 242.033 199.079 234.748C199.079 234.748 179.196 219.83 172.087 204.428C168.45 196.545 166.631 181.078 166.631 181.078C166.631 181.078 141.767 181.99 129.639 169.558L123.575 172.588C123.575 172.588 122.663 182.593 122.06 184.417C121.447 186.236 109.623 178.657 109.623 178.657C109.623 178.657 99.0098 181.078 97.7991 179.564C96.5831 178.049 101.132 168.342 101.132 168.342L100.226 165.313C100.226 165.313 95.0685 168.342 82.6365 166.828Z" fill="#8CD8CD"/>
<path d="M131.453 163.643L133.96 165.461L129.635 169.552C129.635 169.552 142.6 184.112 170.573 179.104C170.573 179.104 170.76 159.163 165.341 155.685C162.157 153.632 158.52 155.227 158.52 155.227L159.656 160.912C159.656 160.912 150.787 162.501 131.453 163.643Z" fill="#BFEAEF"/>
<path d="M99.1628 157.273L93.0241 153.407C93.0241 153.407 96.2028 149.769 98.4801 149.087C98.4801 149.087 95.0668 146.585 91.6588 147.951C88.2455 149.316 82.1068 154.543 79.6055 164.777L80.5121 166.372C80.5121 166.372 91.0508 168.793 100.224 165.311C100.224 165.311 98.4801 161.14 99.1628 157.273Z" fill="#BFEAEF"/>
<path d="M48.3705 226.258C48.3705 226.258 48.2212 239.602 63.2292 258.706L57.5438 272.125C57.5438 272.125 56.6372 264.616 54.8132 262.802C52.9945 260.978 44.1252 263.48 42.7598 257.341C41.3945 251.202 48.2212 247.789 46.6265 243.016C45.0372 238.237 27.2985 241.88 29.7998 226.866L48.3705 226.258Z" fill="#BFEAEF"/>
<path d="M198.32 234.828C198.32 234.828 186.72 243.927 181.946 265.074L180.352 284.86L182.858 290.316C182.858 290.316 188.997 290.092 190.133 279.858C190.133 279.858 198.32 282.359 198.773 273.26C198.773 273.26 199.456 268.716 202.645 268.487C202.645 268.487 201.05 266.898 202.416 263.255L199.456 260.524C199.456 260.524 195.136 251.884 200.138 247.794C205.141 243.698 212.65 251.202 212.65 251.202C212.65 251.202 214.693 249.159 212.65 244.151C212.65 244.151 214.917 240.967 213.328 235.282L198.32 234.828Z" fill="#BFEAEF"/>
<path d="M92.5696 318.06C92.5696 318.06 96.8896 335.116 115.54 359.228C134.186 383.329 162.388 396.524 189.679 401.75C216.964 406.982 254.036 418.358 267.684 441.777C281.332 465.206 276.324 474.076 258.586 478.39C240.847 482.716 172.623 486.582 121.226 470.204C69.8229 453.83 38.6709 437.686 24.7989 425.404C10.9216 413.121 13.4229 393.793 32.0736 382.876C50.7189 371.958 69.0389 358.657 79.3749 341.26C88.6976 325.564 92.5696 318.06 92.5696 318.06Z" fill="#BFEAEF"/>
<path d="M91.429 338.452C91.429 338.452 95.8503 372.713 124.48 393.337C152.682 413.657 196.352 420.932 196.352 420.932C196.65 423.054 189.376 428.814 174.517 423.054C174.517 423.054 163.904 433.673 145.712 425.182C145.712 425.182 127.52 438.825 108.106 424.27C108.106 424.27 90.2183 435.79 74.4476 422.142C74.4476 422.142 55.957 427.908 48.6716 412.441C48.6716 412.441 35.0343 413.956 35.333 400.313C35.333 400.313 57.7703 383.028 71.7223 369.081C85.669 355.134 91.429 338.452 91.429 338.452Z" fill="white"/>
<path d="M219.24 268.484L219.694 272.81L265.182 321.93H268.136L268.595 319.204L223.336 270.079L219.24 268.484Z" fill="white"/>
<path d="M130.699 64.4866C130.699 64.4866 136.23 77.9052 145.558 84.4972L144.646 95.8732L156.699 97.2386C156.699 97.2386 163.75 96.5559 162.838 104.967C161.931 113.383 152.833 118.609 143.51 119.521C143.51 119.521 138.507 125.665 138.737 145.223C138.737 145.223 151.585 149.943 156.475 152.956C159.43 154.775 159.659 160.913 159.659 160.913C159.659 160.913 148.742 164.097 132.214 163.489L100.225 157.425C100.225 157.425 94.3154 155.607 93.5527 153.329C93.5527 153.329 95.0674 151.057 97.4941 149.388C99.9207 147.719 119.478 145.143 119.478 145.143L119.931 136.049L114.326 137.564C114.326 137.564 99.6167 132.86 94.1554 125.436C94.1554 125.436 97.0354 107.697 107.499 92.2306C117.963 76.7692 130.699 64.4866 130.699 64.4866Z" fill="#FCD7BF"/>
<path d="M42.3093 255.676C42.3093 255.676 38.0639 262.492 36.6986 263.105C35.3333 263.708 33.8186 259.313 35.7866 251.735C35.7866 251.735 30.6346 252.487 26.9973 254.156C23.3546 255.825 16.0799 262.343 14.7146 261.436C13.3493 260.524 15.0186 256.583 17.1359 254.311C17.1359 254.311 15.9306 250.673 17.7493 247.639C17.7493 247.639 10.0106 249.607 9.2586 248.545C8.49594 247.489 17.7493 238.087 33.3599 237.628C33.3599 237.628 43.6746 238.689 45.9466 242.785C48.2186 246.881 41.9999 251.121 42.3093 255.676Z" fill="#FCD7BF"/>
<path d="M203.167 246.878C203.167 246.878 210.9 248.542 215.146 253.55C219.391 258.552 219.391 262.04 225.306 268.862C225.306 268.862 225.759 270.83 219.85 269.624C219.85 269.624 220.303 275.384 219.087 276.75C217.876 278.11 214.543 276.75 214.084 273.715C214.084 273.715 211.812 275.23 209.988 271.592C209.988 271.592 206.052 272.504 205.743 269.32C205.743 269.32 199.684 268.862 202.41 263.251L199.455 260.526C199.455 260.526 197.103 252.334 198.618 249.304C200.138 246.275 203.167 246.878 203.167 246.878Z" fill="#FCD7BF"/>
<path d="M100.074 428.213C100.074 428.213 103.968 443.109 109.776 441.098C113.722 439.733 114.629 429.429 114.629 429.429L108.106 424.272L100.074 428.213Z" fill="#FCD7BF"/>
<path d="M127.97 431.546C127.97 431.546 127.666 439.882 129.634 447.621C129.634 447.621 136.157 448.373 139.639 439.583C143.133 430.789 140.855 428.213 140.855 428.213L127.97 431.546Z" fill="#FCD7BF"/>
<path d="M101.589 132.411L113.109 137.414L119.93 136.054L119.477 145.147L99.7647 148.939C99.7647 148.939 91.5781 144.539 87.0341 151.211C87.0341 151.211 82.0261 145.904 85.9674 140.299C85.9674 140.299 91.1247 144.086 96.1327 140.902C101.13 137.718 101.589 132.411 101.589 132.411Z" fill="#FABE8B"/>
<path d="M93.2519 132.711C93.2519 132.711 93.1026 113.916 104.319 96.6253C115.54 79.3453 130.089 64.3373 130.089 64.3373C130.089 64.3373 135.247 76.9186 145.561 84.4973C145.561 84.4973 146.164 95.2653 142.223 106.94C138.276 118.609 135.551 122.103 135.551 122.103C135.551 122.103 150.708 115.276 156.473 98.1453C156.473 98.1453 159.508 96.172 161.935 99.66C164.356 103.148 160.569 112.7 157.535 114.369C154.5 116.033 148.287 118.764 143.513 119.521C143.513 119.521 139.188 124.828 138.735 146.055C138.735 146.055 156.169 151.212 157.839 155.607C157.839 155.607 162.991 153.788 166.18 155.607C169.364 157.425 170.575 179.105 170.575 179.105L167.391 180.924L169.364 196.391C169.364 196.391 176.185 191.239 178.463 182.593C180.729 173.948 179.519 164.551 177.551 161.82C177.551 161.82 190.585 158.636 188.468 141.66C188.468 141.66 183.007 144.087 178.612 143.628C178.612 143.628 180.884 139.233 179.215 134.684C179.215 134.684 164.356 141.047 162.388 130.593C160.415 120.129 169.364 113.761 171.332 102.385C173.305 91.02 171.332 88.892 171.332 88.892C171.332 88.892 184.975 85.26 185.737 70.396L179.977 71.1586L175.124 69.9426C175.124 69.9426 179.977 68.428 181.343 61.148C181.343 61.148 166.783 56.7533 149.956 43.868C133.129 30.9826 100.228 31.2813 85.9719 41.1373C71.7213 50.9933 63.9879 61.148 61.8653 74.188C59.7426 87.228 60.8306 104.759 71.7213 118.913C80.8199 130.743 93.2519 132.711 93.2519 132.711Z" fill="#FABE8B"/>
<path d="M147.829 187.448C147.829 187.448 157.84 199.123 160.869 208.979C160.869 208.979 157.84 215.496 159.957 219.438C162.085 223.379 166.933 222.627 166.933 222.627L174.368 243.55L167.845 246.43C167.845 246.43 154.501 216.104 139.797 199.88L147.829 187.448Z" fill="#FABE8B"/>
<path d="M180.881 217.919L187.249 224.895C187.249 224.895 189.217 220.649 187.249 213.369L180.881 217.919Z" fill="#FABE8B"/>
<path d="M95.2986 429.497L100.077 428.212C100.077 428.212 104.013 441.097 109.779 441.097C113.261 441.097 114.403 431.321 114.403 431.321C114.403 431.321 117.357 440.414 116.904 447.236C116.451 454.057 112.808 461.566 112.808 461.566C112.808 461.566 103.027 456.558 98.9359 447.918C94.8399 439.278 95.2986 429.497 95.2986 429.497Z" fill="#A7A5A6"/>
<path d="M140.856 428.211C140.856 428.211 143.736 445.949 129.634 447.619C129.634 447.619 127.368 465.208 131 466.109C131 466.109 140.781 465.432 143.512 454.291C146.242 443.144 145.56 440.413 145.56 440.413L148.514 448.147L151.24 447.464L148.968 427.224L145.709 425.181L140.856 428.211Z" fill="#A7A5A6"/>
<path d="M110.08 156.706C110.08 156.706 119.632 150.45 121.227 151.133C122.816 151.815 123.499 159.773 123.499 159.773C123.499 159.773 133.963 163.415 133.846 164.781C133.734 166.146 123.574 172.589 123.574 172.589C123.574 172.589 122.699 183.767 121.68 184.45C120.651 185.133 109.968 179.106 109.968 179.106C109.968 179.106 98.8268 180.471 98.2508 179.447C97.6855 178.423 101.211 168.759 101.211 168.759C101.211 168.759 97.9148 159.437 99.0508 158.071C100.187 156.706 110.08 156.706 110.08 156.706Z" fill="#A7A5A6"/>
<path d="M96.095 37.0818C96.095 37.0818 107.578 32.6498 118.836 33.8978C130.09 35.1512 142.031 39.8125 142.031 39.8125L146.81 9.90317L126.111 22.3032L112.922 5.5885L101.775 21.8498C101.775 21.8498 92.6816 13.5458 92.6816 13.8818C92.6816 14.2285 96.095 37.0818 96.095 37.0818Z" fill="#A7A5A6"/>
<path d="M116.787 93.483C116.787 93.483 115.993 99.3924 119.177 100.987C121.811 102.304 124.521 102.123 128.617 101.104C132.707 100.075 134.185 98.7097 135.779 93.2537C137.369 87.7977 134.867 81.883 130.435 81.883C126.003 81.883 120.542 84.7257 118.718 88.139C116.899 91.5524 116.787 93.483 116.787 93.483Z" fill="white"/>
<path d="M115.689 159.248C118.58 159.968 122.057 163.643 120.692 168.646C119.332 173.648 114.628 177.59 109.929 175.163C105.225 172.736 105.076 168.342 106.441 164.55C107.801 160.763 112.66 158.486 115.689 159.248Z" fill="#FFF200"/>
<path d="M281.861 336.181C281.098 337.093 275.493 334.213 275.493 334.213C275.493 334.213 270.485 338.458 269.578 338.154C268.666 337.845 269.733 331.333 269.733 331.333C269.733 331.333 264.421 327.845 264.421 327.082C264.421 326.325 271.85 325.568 271.85 325.568C271.85 325.568 273.215 319.2 273.823 319.2C274.73 319.2 277.306 324.357 277.306 324.357C277.306 324.357 282.463 324.053 283.077 324.661C283.679 325.264 279.887 329.509 279.887 329.509C279.887 329.509 282.618 335.269 281.861 336.181ZM291.562 319.354C290.954 318.138 279.583 319.2 279.583 319.2C279.583 319.2 274.885 307.69 273.215 307.829C271.397 307.978 267.754 321.322 267.754 321.322C267.754 321.322 255.023 324.512 254.869 326.176C254.719 327.845 265.029 333.605 265.029 333.605C265.029 333.605 263.21 345.584 264.725 346.49C266.239 347.402 276.405 339.365 276.405 339.365C276.405 339.365 287.925 344.218 288.986 343.157C290.042 342.09 285.802 330.421 285.802 330.421C285.802 330.421 292.17 320.565 291.562 319.354Z" fill="#FFF200"/>
<path d="M80.819 127.103C80.819 127.103 69.7523 129.077 69.5977 129.983C69.443 130.895 78.5417 132.41 78.5417 132.41C78.5417 132.41 73.3843 146.207 74.6003 146.661C75.8163 147.119 85.3683 133.173 85.3683 133.173L90.0617 132.106L99.1603 130.287L95.0697 126.191L93.555 130.746L90.5203 130.895L80.819 127.103Z" fill="#FFF200"/>
<path d="M144.95 118.16C144.171 118.394 143.734 133.621 143.734 133.621C143.734 133.621 134.342 143.477 134.795 144.538C135.249 145.605 144.646 140.901 144.646 140.901C144.646 140.901 147.83 154.245 149.046 153.632C150.257 153.029 150.406 138.021 150.406 138.021C150.406 138.021 159.185 130.288 158.897 128.016C158.747 126.8 149.803 129.829 149.803 129.829C149.803 129.829 146.465 117.701 144.95 118.16Z" fill="#FFF200"/>
<path d="M112.466 23.2134C114.967 23.064 116.338 25.8267 116.22 28.328C116.108 30.8294 115.196 33.2187 115.196 33.2187L111.447 33.5547L109.735 33.3307C109.735 33.3307 108.034 30.488 108.716 27.5334C109.399 24.5787 110.535 23.3254 112.466 23.2134Z" fill="#ED1C24"/>
<path d="M144.043 27.0402C145.867 27.4668 146.161 30.0695 145.707 32.1922C145.254 34.3148 144.801 37.9522 141.921 37.1948C139.041 36.4428 139.19 33.7122 139.643 31.1362C140.102 28.5548 141.467 26.4322 144.043 27.0402Z" fill="#33BDF2"/>
<path d="M94.1572 27.0415L95.9812 35.9855L93.2506 37.0469C93.2506 37.0469 87.4906 30.3749 94.1572 27.0415Z" fill="#33BDF2"/>
<path d="M129.334 87.1555C131.153 87.1555 133.5 88.8195 133.126 94.5101C132.748 100.19 130.774 100.494 129.564 100.723C128.348 100.953 125.238 101.027 125.238 94.8141C125.238 88.5955 128.118 87.1555 129.334 87.1555Z" fill="#66CCCE"/>
<path d="M107.917 122.198C107.917 122.198 106.669 127.936 110.195 128.166C113.72 128.395 115.768 125.782 115.768 122.31C115.768 122.31 115.309 118.278 111.731 117.195C108.147 116.112 107.581 118.384 107.464 119.184C107.352 119.979 107.917 122.198 107.917 122.198Z" fill="#F78DA6"/>
<path d="M131.095 93.5859C130.279 93.5859 129.639 92.6899 129.639 91.5486C129.639 90.4073 130.279 89.5113 131.095 89.5113C131.911 89.5113 132.551 90.4073 132.551 91.5486C132.551 92.6899 131.911 93.5859 131.095 93.5859Z" fill="white"/>
<path d="M191.672 422.653C179.245 419.565 166.525 416.578 154.653 411.986C126.451 401.069 103.939 382.194 95.5226 359.906C92.9573 353.117 91.4799 347.416 90.6799 342.765C87.6986 351.698 77.5386 366.856 65.7306 377.65C56.5733 386.013 44.4559 394.712 36.7653 401.298C36.7813 403.949 37.8639 409.837 47.0213 410.824C46.9466 409.362 46.9733 407.842 47.0053 406.829C47.1546 401.832 48.8239 396.978 49.2826 397.128C49.7359 397.277 48.9786 404.712 49.8853 411.074C50.1039 412.584 52.1626 418.05 60.8026 420.626C66.6373 422.365 70.8079 421.832 72.8986 421.293C72.2639 417.522 71.2879 408.989 71.5653 401.069C72.0186 388.333 75.0533 377.266 75.8106 377.57C76.5733 377.874 74.7493 386.061 74.7493 397.581C74.7493 410.178 75.8106 419.416 76.2639 420.322C77.0906 421.965 79.1439 426.386 90.0613 426.994C97.6773 427.421 103.069 424.898 105.64 423.33C104.371 419.698 103.277 414.472 103.405 406.68C103.56 397.586 105.224 389.4 105.683 389.549C106.291 389.752 105.635 396.541 106.285 408.045C106.739 416.082 108.259 421.085 109.32 422.45C110.381 423.816 116.899 429.272 126.605 429.272C137.219 429.272 144.648 422.296 145.101 422.141C145.56 421.992 151.016 426.845 161.325 426.237C171.635 425.634 173 421.234 173.907 421.234C174.749 421.234 182.888 426.045 191.672 422.653ZM147.203 427.944C146.291 427.485 145.859 427.149 145.859 427.149C145.859 427.149 144.44 428.162 142.131 429.373C142.285 432.45 142.072 438.194 139.037 443.218C134.643 450.498 130.397 449.432 130.397 449.432C128.883 454.893 130.851 463.842 132.061 464.296C133.277 464.749 139.491 461.869 141.768 453.378C144.04 444.888 143.581 438.669 143.581 436.701C143.581 434.728 144.344 434.573 144.797 435.032C145.251 435.485 148.44 445.949 148.893 445.794C149.347 445.645 149.651 445.645 149.8 445.037C149.955 444.429 149.192 440.338 148.589 436.85C148.115 434.125 148.461 430.946 147.203 427.944ZM129.512 433.277C129.837 437.208 130.547 445.117 131 445.794C131.608 446.706 137.219 444.584 139.187 437C140.083 433.56 140.381 431.469 140.445 430.205C137.517 431.576 133.656 432.946 129.512 433.277ZM101.555 429.293C103.165 434.45 106.307 439.933 109.053 439.618C111.4 439.346 112.456 432.552 112.797 429.768C110.611 428.562 108.941 427.266 107.672 426.2C106.403 427.09 104.344 428.317 101.555 429.293ZM115.085 447.352C115.011 443.41 114.611 439.197 114.328 436.674C113.283 440.648 111.325 443.218 109.512 443.373C106.909 443.586 102.563 440.082 99.1119 430.029C98.3333 430.226 97.5173 430.392 96.6586 430.536C96.8826 432.594 97.5599 436.936 99.6133 443.256C103.416 454.957 111.331 459.181 112.237 459.064C113.144 458.952 115.192 453.49 115.085 447.352ZM263.357 466.109C262.451 465.656 262.376 457.165 238.344 440.413C226.989 432.498 212.968 428.114 198.243 424.312C196.835 425.304 194.136 426.717 189.528 427.448C181.944 428.664 174.819 424.872 174.819 424.872C174.819 424.872 170.115 430.482 160.109 430.482C156.435 430.482 153.539 430.034 151.341 429.458C151.587 430.866 151.784 432.616 151.469 435.032C150.824 439.992 152.531 447.234 152.381 448.146C152.227 449.053 149.459 450.114 148.856 449.965C148.243 449.816 145.709 445.645 145.709 445.645C145.709 445.645 147.075 451.709 143.432 458.834C139.795 465.96 132.973 469.448 130.547 468.088C128.12 466.722 126.605 463.384 126.152 456.866C125.693 450.344 127.517 446.098 127.517 446.098C127.517 446.098 126.456 440.034 126.072 433.309C122.083 433.128 118.787 432.354 116.093 431.309C121.512 453.72 115.736 462.594 113.491 463.16C111.213 463.725 100.755 458.04 96.5466 444.285C94.6053 437.938 94.0453 433.138 93.8853 430.856C91.5866 431.01 89.0479 430.93 86.2746 430.488C79.8853 429.453 76.2426 426.626 74.3813 424.317C71.4906 425.368 65.5493 426.765 58.5253 424.114C52.3599 421.789 48.9306 418.146 47.5813 414.306C45.2186 414.312 39.9706 413.885 36.3919 410.472C34.2746 408.445 33.9493 405.64 34.0186 403.741C32.0133 405.613 30.5359 407.245 29.7946 408.573C27.6506 412.434 29.5706 415.853 28.8933 416.312C28.2053 416.765 24.3386 414.034 25.9333 407.437C27.5279 400.84 45.7199 390.152 62.5466 374.92C78.4239 360.541 86.1999 345.368 89.8959 335.101C89.7839 329.709 90.8613 327.16 91.4266 327.389C91.9013 327.576 91.4266 349.672 107.576 372.872C123.725 396.066 152.152 409.256 181.491 415.853C210.829 422.45 234.931 429.272 251.08 444.509C266.563 459.117 264.269 466.568 263.357 466.109ZM278.936 329.432C280.963 327.261 282.371 325.24 282.291 325.053C282.221 324.866 279.827 325.176 276.723 325.506C275.56 322.514 274.221 320.45 274.104 320.45C273.997 320.45 273.112 323.33 272.285 326.706C269.331 327.16 266.237 327.501 266.205 327.725C266.168 327.949 267.848 328.92 270.808 330.568C270.509 333.08 270.051 336.482 270.237 336.594C270.429 336.712 272.509 335.41 275.245 332.904C277.64 334.136 280.76 335.384 280.872 335.229C280.984 335.08 280.136 332.125 278.936 329.432ZM280.76 329.666C282.232 333.24 283.613 337.357 283.32 337.618C283.016 337.88 278.28 336.488 275.469 335.058C272.365 337.608 269.043 340.061 268.595 339.837C268.141 339.613 268.424 335.458 269.107 331.821C266.147 330.098 262.259 327.714 262.339 327.042C262.413 326.37 267.059 325.506 270.979 325.112C272.147 320.536 273.32 316.509 273.768 316.472C274.285 316.424 276.264 320.722 277.507 323.49C281.272 323.181 284.739 323.085 284.963 323.458C285.192 323.837 283.491 326.477 280.76 329.666ZM283.907 330.269C288.003 325.869 290.653 320.786 290.499 320.408C290.349 320.034 285.272 319.954 278.979 320.637C276.627 314.573 273.523 309.65 273.293 309.65C273.064 309.65 270.333 315.48 268.669 322.306C262.451 323.517 256.387 325.794 256.312 326.248C256.232 326.706 260.179 329.586 266.168 332.92C265.56 337.997 265.027 344.973 265.405 345.202C265.784 345.432 270.413 342.925 275.944 337.848C280.797 340.344 287.619 342.168 287.848 341.869C288.072 341.56 286.328 335.725 283.907 330.269ZM265.805 320.813C266.152 320.733 266.493 320.642 266.851 320.562C266.957 320.157 267.075 319.752 267.197 319.341L222.867 271.122C222.04 271.053 221.149 270.877 220.259 270.541C220.307 270.738 220.36 270.952 220.413 271.192L265.805 320.813ZM218.381 269.602C217.779 269.208 217.197 268.738 216.659 268.168C215.635 269.048 214.755 271.805 215.373 273.938C216.056 276.29 218.253 276.669 218.707 274.546C219.059 272.93 218.616 270.616 218.381 269.602ZM213.261 272.6C213.32 271.224 213.64 269.96 214.083 268.936C214.051 267.757 213.896 267.01 213.747 266.562C213.043 266.546 212.163 266.472 211.229 266.274C210.861 267.261 210.403 269.005 210.899 270.76C211.475 272.76 212.531 272.829 213.261 272.6ZM208.819 270.482C208.611 268.456 209.165 266.717 209.565 265.789C208.989 265.576 208.419 265.293 207.869 264.941C207.555 265.485 207.181 266.344 206.957 267.65C206.632 269.565 207.768 270.445 208.819 270.482ZM206.403 263.752C205.912 263.256 205.507 262.722 205.171 262.189C204.2 262.888 202.493 264.722 203.096 266.514C203.485 267.688 204.259 267.848 204.92 267.73C205.149 265.986 205.944 264.493 206.403 263.752ZM201.027 267.026C200.872 266.344 200.872 265.565 201.123 264.696C201.208 264.397 201.32 264.125 201.437 263.874C201.165 263.65 200.915 263.41 200.685 263.16C199.533 268.248 194.499 268.349 192.632 269.922C191.027 271.272 191.325 274.696 191.501 278.2C192.685 278.301 195.117 278.274 196.349 276.594C198.013 274.322 196.573 271.666 198.013 269.32C199.027 267.661 200.339 267.176 201.027 267.026ZM193.011 265.832C199.453 264.616 198.547 259.992 197.107 256.808C195.789 253.901 195.891 245.661 203.624 244.76C211.757 243.8 212.493 240.514 212.115 236.872C212.115 236.872 206.216 237.069 198.701 236.653C196.888 237.837 193.821 240.322 190.813 245.058C185.805 252.941 183.443 262.12 182.52 266.621C182.44 272.866 182.269 279.101 182.173 282.466C182.787 284.125 183.395 285.773 184.008 287.405C188.312 286.274 188.525 280.029 188.163 275.837C187.784 271.517 186.568 267.042 193.011 265.832ZM219.693 378.178C202.803 347.058 186.573 308.834 170.451 261.181C162.067 236.386 150.632 215.117 138.893 202.402C137.896 203.64 136.995 204.68 136.307 205.336C134.237 207.309 117.352 204.882 107.651 194.269C107.651 194.269 101.619 198.557 94.5199 201.058C91.1173 205.469 75.6453 227.149 57.9226 278.109C39.5279 331.005 34.6533 365.058 28.7973 382.845C38.2213 376.6 52.4666 369.368 62.3173 358.92C79.7573 340.424 91.7359 316.621 92.4879 316.621C93.5599 316.621 99.1653 334.584 111.139 350.888C123.725 368.018 139.64 382.418 163.597 392.125C187.555 401.832 213.24 404.456 229.475 410.621C234.531 412.541 239.101 414.6 243.24 416.84C237.341 408.253 228.899 395.133 219.693 378.178ZM202.867 407.437C168.904 400.466 146.312 392.578 123.571 371.656C100.829 350.733 92.6639 321.037 92.3386 320.717C92.1893 320.562 87.3359 331.634 77.1759 346.792C67.0213 361.954 52.3119 373.325 35.4853 383.789C18.6586 394.248 14.7866 407.661 22.9733 418.578C31.9813 430.584 58.2266 445.794 92.1893 458.381C126.147 470.968 162.685 478.85 199.379 479.757C236.067 480.669 262.227 476.498 268.595 471.117C274.909 465.773 272.909 455.346 264.12 442.461C255.325 429.576 236.829 414.413 202.867 407.437ZM58.1999 264.952C59.1013 262.557 59.9973 260.248 60.8826 258.013C57.6719 253.234 48.4399 238.765 47.1013 228.504C38.4986 229.229 31.9599 228.797 31.9599 228.797C31.9599 228.797 30.1413 235.053 36.0506 236.76C41.9653 238.466 44.9199 237.208 47.6506 241.762C50.3813 246.312 46.2853 249.837 44.6906 252.792C43.1066 255.746 44.5786 259.613 49.5813 260.072C53.5973 260.434 56.8826 260.434 58.1999 264.952ZM44.9199 244.376C43.6026 240.125 36.7119 241.538 32.0826 238.776C20.9093 239.309 10.6799 246.738 10.6799 247.533C10.6799 248.141 11.8426 247.96 13.6186 247.533C14.7173 247.266 15.2239 247.048 17.5599 246.258C19.4426 243.645 22.1466 242.322 22.5039 242.632C22.7653 242.856 21.7786 243.085 19.8693 245.512C18.6586 247.053 18.1146 248.488 17.8639 249.485C20.1146 246.808 23.2613 245.08 23.6666 245.448C24.0079 245.762 19.9599 248.536 18.1573 252.429C21.5119 249.709 24.8079 248.93 24.8773 249.266C24.9519 249.672 22.4239 250.658 18.9093 253.842C15.3946 257.026 14.6639 259.4 15.2346 259.805C15.8053 260.216 17.6666 258.434 20.5413 256.541C23.4586 254.616 27.1599 252.616 27.1599 252.616C33.5333 250.658 37.8586 249.917 37.8586 249.917C35.2453 256.616 35.4906 261.357 36.5519 261.682C37.4106 261.944 38.6479 258.354 40.3866 255.81C40.3173 250.52 45.9493 247.693 44.9199 244.376ZM49.1439 228.152C50.0559 232.381 52.5893 242.184 61.9013 255.442C76.3439 219.533 87.6773 204.093 91.1173 199.805C89.7839 197.298 84.6533 186.92 85.7466 177.4C86.3013 172.525 87.4906 169.938 88.3813 168.621C86.8026 168.648 85.3946 168.632 84.1733 168.557C81.2559 178.893 78.6586 194.376 77.4799 197.757C76.2746 201.208 67.9119 213.17 49.1439 228.152ZM81.3626 164.722C81.6399 165.048 88.8773 166.632 98.6479 164.824C97.7519 161.725 97.5119 158.936 97.7199 157.56C90.2213 154.701 91.7839 150.957 92.1093 150.792C92.2586 150.717 92.5039 151.085 93.0213 151.661C93.5973 150.989 94.5733 149.954 95.8266 149.074C94.6159 148.946 92.9946 148.861 91.8266 149.144C89.7253 149.656 87.0533 153.181 85.0053 156.312C82.9573 159.437 81.0853 164.381 81.3626 164.722ZM86.7813 148.994C88.7813 147.069 90.3813 146.45 91.2026 146.301C92.3546 146.093 96.1946 145.65 99.7679 147.256C103.896 145.97 110.563 144.925 117.885 144.157C118.008 142.936 118.195 140.69 118.408 137.709C115.981 138.584 114.509 138.781 113.827 138.85C113.08 138.93 108.077 137.501 102.605 134.216C101.144 141.261 94.2959 146.445 86.4293 141.81C86.4293 141.81 84.6053 145.384 86.7813 148.994ZM96.5946 129.848C96.1306 129.437 95.6719 129.005 95.2293 128.562C95.1493 129.17 95.0799 129.746 95.0213 130.285C95.6133 130.12 96.1466 129.97 96.5946 129.848ZM86.0826 132.013C84.2266 131.037 82.1893 129.832 80.0826 128.354C75.2986 128.925 72.1999 129.688 72.0986 130.098C71.9866 130.552 76.5306 131.122 80.4026 131.122C77.7839 136.466 75.0586 144.424 75.5119 144.653C75.9653 144.877 81.6506 137.602 84.7173 132.029C85.1333 132.05 85.5919 132.045 86.0826 132.013ZM91.6559 130.328C92.0026 117.928 98.9306 100.989 105.075 92.3436C111.213 83.7036 118.035 75.1756 124.637 68.5783C131.229 61.9809 132.024 58.7969 132.365 59.0263C132.589 59.1809 132.696 60.7649 131.565 63.4049C132.173 65.2449 134.168 70.3596 139.075 75.9703C146.237 84.1569 151.699 86.205 151.469 86.5463C151.352 86.7223 149.741 86.9036 147.091 85.8583C147.208 87.7676 147.32 93.6556 145.101 102.237C142.371 112.813 138.392 118.84 138.392 118.84C138.392 118.84 147.373 113.037 152.035 104.514C156.696 95.9809 156.813 92.0023 157.267 92.0023C157.475 92.0023 157.885 93.6236 157.704 96.269C158.632 96.141 160.451 96.1623 162.157 97.7623C164.696 100.146 165.037 109.213 158.52 115.202C155.005 118.429 149.443 119.645 147.363 120.002C148.408 122.296 149.539 125.474 150.333 128.845C154.653 127.282 160.205 126.418 160.541 127.053C160.749 125.576 161.107 124.008 161.587 122.365C163.864 114.632 168.643 108.946 170.008 100.648C170.995 94.6316 170.435 91.197 170.045 89.7516C166.675 89.7356 164.899 88.4023 165.117 88.1356C165.565 87.5703 172.621 88.8183 179.101 82.7916C183.928 78.3063 184.221 72.5569 184.221 72.5569C175.347 73.5809 170.909 70.3969 170.909 70.3969C170.909 70.3969 173.533 69.6023 176.259 67.213C178.984 64.8236 179.56 61.9809 179.56 61.9809C173.304 60.8449 165.96 58.1516 158.291 51.9756C150.104 45.3836 132.136 32.5356 106.099 36.173C80.0559 39.8103 58.3386 63.8049 63.2293 94.0503C68.1199 124.301 91.6559 130.328 91.6559 130.328ZM93.2239 35.2663C93.6293 35.1169 94.0293 34.9783 94.4399 34.8396C94.2053 33.405 93.8373 31.1863 93.4319 28.6636C92.7279 29.2876 92.0239 30.4503 92.2746 32.5676C92.4399 33.9436 92.8293 34.7703 93.2239 35.2663ZM95.5173 26.8503C96.7279 27.8636 97.8373 28.6476 98.4879 29.1703C99.0266 29.0316 100.157 28.7703 101.832 28.477C102.915 27.4476 104.979 25.7943 106.968 24.5356C108.413 20.2903 111.592 14.8289 112.275 14.7596C112.803 14.6956 115.837 19.5329 117.432 23.4743C120.109 25.0903 122.344 26.5676 123.544 27.533C126.339 27.7036 129.336 27.9916 132.525 28.4236C133.587 27.7516 135.949 26.8236 139.117 25.9756C141.064 22.8343 143.475 20.2743 144.499 19.4796C145.16 15.8796 145.811 12.1783 145.725 12.1196C145.56 12.0076 125.597 24.0023 125.427 23.9436C125.261 23.8903 112.867 8.02894 112.637 7.97028C112.413 7.91161 101.555 24.173 101.325 24.173C101.096 24.173 94.1573 16.5516 94.0453 16.7276C93.9866 16.8129 94.7546 21.9169 95.5173 26.8503ZM144.392 28.2743C144.125 27.8796 143.811 27.6449 143.512 27.5916C143.411 27.5756 143.32 27.5703 143.224 27.5756C142.099 27.6289 140.984 29.3463 140.568 31.6556C140.131 34.1196 140.771 35.8956 141.651 36.1836C141.699 36.1996 141.779 36.2209 141.907 36.2103C142.845 36.1676 144.451 35.0423 144.947 32.7703C145.315 31.0796 145.096 29.3143 144.392 28.2743ZM139.757 36.9836C138.755 35.7836 138.355 33.7036 138.776 31.3356C139.224 28.8343 140.637 25.8796 143.139 25.757C143.203 25.7516 143.267 25.7676 143.336 25.7676C143.48 24.9943 143.757 23.5169 144.072 21.7996C142.973 22.8396 139.869 27.2609 139.869 27.2609C139.869 27.2609 133.805 29.0849 133.731 29.4583C133.656 29.8423 137.747 34.6156 137.747 34.6156L138.173 36.3489C138.707 36.5516 139.235 36.7649 139.757 36.9836ZM120.163 32.2903C123.123 32.5836 126.099 33.053 129.069 33.6663C131.784 34.2316 134.339 34.9836 136.771 35.8423C136.744 35.6503 136.712 35.4263 136.685 35.149C134.957 33.4796 132.915 31.0263 132.189 29.7516C129.389 29.3783 126.749 29.117 124.259 28.9463C123.667 29.6663 121.928 31.0369 120.163 32.2903ZM105.171 32.4023C103.693 31.5436 102.232 30.5356 101.523 29.9116C100.243 30.1463 99.3733 30.349 98.9093 30.4716C98.6106 31.229 97.8906 32.5036 96.6266 33.9703C96.6373 34.0289 96.6479 34.0929 96.6533 34.1463C99.4533 33.3356 102.296 32.7649 105.171 32.4023ZM96.4079 32.5569C96.8933 31.7996 97.7199 30.4663 97.7199 30.1409C97.7199 29.8423 96.5573 29.005 95.7733 28.4823C96.0026 29.9596 96.2213 31.3729 96.4079 32.5569ZM117.251 28.7863C117.251 30.0023 117.059 31.0956 116.712 32.0236C117.245 32.0556 117.784 32.0929 118.317 32.1249C119.64 31.0849 122.525 28.7863 122.584 28.5516C122.664 28.2476 116.371 24.2316 116.371 24.2316C116.371 24.2316 112.659 16.7276 112.275 16.7276C111.896 16.7276 107.88 25.5223 107.88 25.5223C107.88 25.5223 102.952 28.9356 103.027 29.309C103.085 29.597 105.779 31.3516 107.096 32.1943C107.512 32.1569 107.928 32.1143 108.349 32.0876C107.912 31.1276 107.661 30.0023 107.661 28.7863C107.661 25.021 109.677 22.1836 112.355 22.1836C115.101 22.1836 117.251 25.085 117.251 28.7863ZM110.371 31.9756C111.827 31.9169 113.293 31.9062 114.755 31.9489C115.176 31.1436 115.427 30.061 115.427 28.7863C115.427 26.1463 114.045 24.0023 112.355 24.0023C110.739 24.0023 109.48 26.1036 109.48 28.7863C109.48 30.109 109.843 31.1863 110.371 31.9756ZM160.429 127.906C159.779 129.704 156.915 133.522 151.469 138.397C151.347 142.2 151.107 145.896 150.813 148.994C153.784 150.216 156.429 151.485 157.837 152.728C158.12 152.973 158.376 153.234 158.616 153.512C160.072 153.234 163 152.877 165.341 153.746C168.6 154.962 170.227 159.32 171.485 167.17C172.595 174.157 172.205 180.354 171.821 180.813C171.688 180.978 170.765 181.362 169.011 181.693C169.24 183.736 169.821 188.392 170.867 193.426C172.76 190.696 177.64 182.968 178.195 175.01C178.877 165.122 174.893 160.797 175.117 160.456C175.347 160.114 181.603 159.208 184.787 154.205C187.971 149.202 187.288 143.288 187.288 143.288C182.397 146.354 176.147 145.448 175.917 144.994C175.64 144.445 178.419 142.264 178.195 136.466C178.195 136.466 173.075 139.992 166.365 138.168C161.357 136.808 159.901 132.984 160.429 127.906ZM122.211 171.832C127.288 169.858 132.136 165.762 132.136 165.16C132.136 164.546 126.755 162.125 122.211 160.765C122.211 156.136 121.443 152.429 121.069 152.269C120.541 152.045 114.856 154.392 110.456 158.104C105.453 157.805 100.605 158.637 100.296 159.09C99.9973 159.549 100.296 164.248 102.723 168.568C100.147 172.434 98.9306 178.045 99.1599 178.573C99.3893 179.106 104.771 178.957 109.928 177.512C113.789 180.621 120.387 183.432 120.765 183.202C121.144 182.973 122.36 177.512 122.211 171.832ZM168.979 178.12C169.437 177.741 169.208 172.205 167.997 165.992C166.781 159.773 165.949 157.954 164.963 157.042C164.093 156.248 162.291 156.093 160.323 156.168C160.941 157.501 161.245 158.738 161.379 159.432C162.915 159.048 163.661 158.824 163.752 158.941C163.981 159.245 164.355 162.712 148.968 164.024C142.067 164.605 137.267 164.562 134.717 164.456C135.048 164.845 135.229 165.192 135.245 165.458C135.293 166.253 133.741 167.89 131.251 169.629C138.515 175.741 146.461 178.024 154.349 178.877C161.325 179.64 168.525 178.504 168.979 178.12ZM143.272 122.333C141.469 126.216 140.787 132.226 140.552 135.213C141.235 134.546 141.955 133.864 142.712 133.17C142.605 129.234 142.856 125.368 143.272 122.333ZM140.216 145.218C140.216 145.218 142.248 145.97 145.08 147.01C144.707 145.672 144.333 144.216 143.965 142.605C142.685 143.16 141.443 143.661 140.269 144.098L140.216 145.218ZM157.683 129.149C157.608 128.994 153.667 129.869 148.968 131.912C147.075 124.717 145.581 119.528 145.251 119.597C144.877 119.672 144.573 127.48 144.723 134.381C140.323 138.322 136.227 142.946 136.307 143.325C136.381 143.704 140.403 141.96 145.56 139.08C146.691 144.541 148.44 151.362 148.739 151.282C149.043 151.213 149.501 145.069 149.192 137.565C153.133 134.381 157.763 129.298 157.683 129.149ZM153.064 109.288C151.128 112.296 148.499 114.925 145.784 117.117C145.88 117.245 145.987 117.4 146.088 117.565C148.584 117.25 158.045 115.528 160.488 107.09C162.584 99.8636 159.011 98.3649 157.427 98.5143C157.251 99.5276 156.979 100.637 156.605 101.821C157.939 101.714 158.749 102.008 158.803 102.28C158.856 102.541 157.624 102.658 156.104 103.266C155.395 105.144 154.429 107.17 153.064 109.288ZM94.9306 153.378C95.4319 153.736 96.0133 154.093 96.7173 154.429C98.0186 155.058 99.4373 155.565 100.653 155.944C102.973 155.634 106.451 155.581 110.003 155.906C115.005 151.586 120.616 149.389 121.827 149.768C123.043 150.146 124.253 154.013 124.787 159.245C127.427 159.986 129.693 160.978 131.443 161.97C134.899 162.072 141.955 162.173 147.448 161.666C152.259 161.224 155.837 160.626 158.413 160.104C158.184 159.117 157.544 156.925 156.168 155.378C154.915 153.97 152.904 152.957 150.488 151.938C150.115 154.994 149.699 156.978 149.347 157.042C148.819 157.154 147.512 154.866 146.003 150.136C142.141 148.648 137.208 147.096 137.139 146.888C137.101 146.76 137.149 145.885 137.208 145.154C134.637 145.944 132.856 146.226 132.669 145.752C132.419 145.101 134.147 142.184 137.533 138.386C138.243 128.461 140.029 122.93 141.043 120.504C136.893 123.128 133.448 124.525 133.16 124.413C132.595 124.184 138.979 112.738 142.029 101.554C143.891 94.7489 144.44 87.5223 144.808 84.7596C143.208 83.8636 141.379 82.5623 139.373 80.7116C139.005 81.6236 138.115 82.9943 136.008 84.1249C136.301 84.8663 136.52 85.693 136.675 86.6103C139.523 87.1116 140.749 85.3089 141.064 85.4636C141.384 85.6289 139.949 88.5463 136.899 88.4716C136.904 88.5143 136.909 88.5463 136.909 88.5889C136.995 89.6663 136.979 90.6103 136.893 91.4476C138.6 91.9063 139.805 91.4636 139.757 91.8369C139.704 92.2049 138.099 92.8716 136.675 92.8609C136.088 95.5596 134.803 96.5996 134.643 96.4396C134.413 96.2103 135.208 95.0743 134.979 90.3009C134.755 85.5223 133.277 83.1329 129.752 82.7916C126.227 82.4503 121.789 85.1809 119.517 88.8183C117.24 92.4609 117.011 96.8023 116.451 96.6636C115.992 96.5516 115.651 91.437 117.128 88.253C118.136 86.0823 122.013 80.1783 128.157 79.8369C131.144 79.6663 133.181 80.3436 134.552 81.7569C135.267 81.6129 136.339 81.3249 137.139 80.8023C137.677 80.4556 138.099 80.1036 138.424 79.7996C137.965 79.3463 137.501 78.8663 137.027 78.3543C132.6 73.5756 130.52 68.5943 129.816 66.6263C129.112 67.7143 128.227 68.8982 127.133 70.1676C122.515 75.5329 114.739 83.245 104.733 99.7356C99.3359 108.637 96.8826 118.264 95.7146 125.277C103.816 133.032 112.861 135.896 113.827 135.896C114.856 135.896 120.147 134.21 125.885 131.229C132.024 128.05 133.277 126.797 133.613 127.144C133.96 127.48 131 131.458 124.637 134.872C123.448 135.506 122.376 136.04 121.395 136.482C121.075 141.816 120.76 145.517 120.755 145.554L120.653 146.472L119.736 146.557C109.224 147.89 102.12 149.144 98.8239 150.509C97.0479 151.24 95.6986 152.52 94.9306 153.378ZM159.304 208.424C153.64 197.074 147.987 190.024 147.987 190.024C147.987 190.024 144.52 195.058 141.165 199.49C150.915 209.842 160.44 225.384 168.291 244.184C169.272 243.96 170.739 243.485 172.179 242.509C170.301 236.722 168.253 230.664 166.205 225C164.531 225.005 161.016 224.477 158.744 220.269C156.435 215.981 158.157 210.93 159.304 208.424ZM160.904 216.173C161.123 218.429 162.28 220.824 164.888 221.421C164.557 220.541 164.227 219.672 163.901 218.829C163.048 216.616 162.152 214.504 161.24 212.493C161 213.426 160.771 214.765 160.904 216.173ZM179.053 273.842L179.533 266.269C178.259 261.96 176.077 254.696 173.469 246.52C172.157 247.266 170.888 247.725 169.848 248.013C171.32 251.72 172.728 255.533 174.056 259.458C175.715 264.354 177.379 269.149 179.053 273.842ZM170.552 205.56C167.304 197.496 165.816 185.912 165.4 182.152C161.981 182.402 157.144 182.338 150.707 181.384C138.563 179.57 131.064 172.93 129.107 171.005C127.757 171.805 126.248 172.584 124.637 173.266C124.637 180.546 123.725 185.17 122.509 185.853C121.299 186.536 113.56 183.96 109.624 180.093C102.877 181.912 98.4026 181.837 97.3413 180.925C96.1626 179.912 95.9813 174.712 99.9973 168.493C99.8053 168.082 99.6346 167.661 99.4693 167.24C98.1626 167.618 95.8586 168.146 92.6159 168.429C91.6026 169.8 89.9919 172.546 89.3786 176.722C88.6746 181.549 90.6213 191.72 94.3013 197.837C100.141 195.634 106.813 190.776 107.955 190.776C109.165 190.776 112.957 196.237 121.299 199.874C129.635 203.517 133.576 202.605 134.029 202.456C134.488 202.306 137.219 199.122 141.315 193.357C145.405 187.597 147.075 184.717 147.528 184.562C147.987 184.413 154.243 192.2 160.717 204.274C168.328 218.472 177.069 243.554 181.896 260.818C182.792 257.309 184.851 250.589 188.616 244.76C191.907 239.65 194.541 237.085 196.099 235.853C185.608 226.536 174.675 215.784 170.552 205.56ZM183.421 218.365C184.451 219.528 185.517 220.685 186.621 221.837C187.165 218.461 186.488 215.49 186.488 215.49C186.488 215.49 185.507 216.952 183.421 218.365ZM211.789 249.16C212.147 248.285 211.933 247.234 211.613 246.402C210.643 246.957 209.571 247.272 208.493 247.496C209.459 247.885 210.611 248.434 211.789 249.16ZM203.144 248.44C202.003 248.781 201.048 249.336 200.44 250.365C198.781 253.186 200.397 255.693 200.851 259.122C201.507 260.098 202.365 261.186 203.224 261.661C203.709 261.298 204.168 261.048 204.509 260.893C203.88 259.362 203.885 258.072 204.381 257.944C204.973 257.8 206.355 261.736 210.029 263.368C213.373 264.85 215.715 264.386 215.715 264.386C215.715 264.386 217.192 266.21 219.469 267.688C221.741 269.165 223.555 269.181 223.715 268.637C223.944 267.874 220.035 265.069 217.421 259.842C214.835 254.664 212.232 250.941 203.144 248.44ZM286.936 330.418C289.587 337.768 290.803 344.066 290.2 344.594C289.587 345.122 282.232 343.384 276.552 340.498C270.259 345.65 264.653 348.536 263.741 348.082C262.829 347.629 263.208 340.728 263.971 334.285C257.981 330.797 252.744 327.234 252.899 325.869C253.027 324.728 257.533 322.994 263.357 321.437L220.776 274.925C220.733 275.469 220.637 275.992 220.451 276.445C220.045 277.442 219.256 278.322 218.104 278.562C216.467 278.904 214.344 278.088 213.629 275.682C213.597 275.576 213.576 275.469 213.555 275.362C212.509 275.544 210.643 275.469 209.539 273.106C209.512 273.048 209.496 272.989 209.469 272.936C208.157 273.149 206.072 273.074 205.213 270.76C205.139 270.546 205.085 270.338 205.032 270.136C204.435 270.184 203.747 270.034 203.107 269.693C198.877 270.914 202.136 275.304 198.621 279.176C195.976 282.088 193.069 282.109 191.56 281.864C191.432 285.181 190.504 288.653 185.683 291.832C198.147 324.53 210.989 352.002 224.013 375.373C235.789 396.493 248.483 415.144 255.4 424.914C261.565 429.954 266.467 435.757 270.483 442.61C278.003 455.426 279.907 464.76 277.005 470.888C272.989 479.384 248.499 485.213 207.72 484.765C166.931 484.306 138.435 478.701 105.533 467.933C72.6319 457.17 45.1866 445.645 24.8719 428.36C4.86127 411.336 15.2933 394.322 22.6373 387.512C28.7919 365.746 35.2133 329.496 53.9066 276.669C54.6426 274.589 55.3679 272.568 56.0933 270.589C56.0026 268.034 55.5173 265.165 53.9066 264.386C50.8666 262.925 43.5973 264.792 41.1333 259.096C39.1173 264.322 37.1493 265.357 36.0613 265.357C35.2079 265.357 33.6933 263.405 33.6133 259.4C33.5333 255.229 34.1466 253.229 34.1466 253.229C31.6079 253.88 28.1413 254.946 28.1413 254.946C28.1413 254.946 26.2586 255.554 21.8479 258.578C17.3359 261.672 14.7439 263.154 13.5973 262.504C12.5039 261.874 12.1733 258.994 15.5866 254.957C15.5706 254.194 15.7039 253.448 15.9546 252.733C15.6933 252.066 15.4799 250.776 16.2319 248.749C15.5973 248.984 14.7119 249.261 13.6826 249.49C11.4746 249.981 8.11992 250.061 7.98659 248.632C7.74125 246.061 13.1279 242.018 18.8293 239.506C23.0373 237.65 27.4426 236.664 29.4586 236.28C26.4186 231.73 28.1413 225.016 28.6639 224.706C28.9253 224.541 37.0159 225.485 46.8559 224.946C49.5866 222.653 70.2373 205.181 73.3839 197.149C76.2586 189.826 77.9119 177.197 80.3973 168.024C79.1333 167.672 78.3706 167.17 78.1253 166.488C77.5013 164.722 79.7999 158.685 83.3519 153.234C83.7786 152.589 84.1946 152.008 84.5999 151.469C79.8533 144.354 85.2346 137.762 85.7466 137.602C86.0133 137.517 90.1786 142.04 95.1813 139.421C98.7599 137.549 99.5439 134.12 99.7039 132.317C99.3519 132.066 99.0053 131.805 98.6586 131.538C97.8266 131.837 96.5199 132.253 94.7813 132.674C94.6319 134.381 94.5786 135.389 94.4986 135.437C94.4079 135.501 92.4293 134.968 89.4533 133.656C88.5359 133.773 87.5653 133.88 86.5413 133.96C81.6506 141.24 74.4826 149.314 73.2346 149.202C71.7999 149.069 74.4826 138.968 76.9893 133.277C70.8506 132.37 66.8719 130.893 67.0959 129.869C67.3199 128.877 73.0959 127.352 77.8053 126.685C71.0746 121.453 64.1466 113.565 60.9519 102.12C57.6773 90.3649 58.0026 76.7969 62.5466 64.9409C65.3413 57.6449 69.7946 51.0796 75.8479 45.7196C80.6746 41.4529 85.7733 38.3223 91.0533 36.1143C90.5786 35.3356 90.1893 34.2849 90.0133 32.8343C89.5653 29.0476 91.4533 27.021 93.0319 26.1836C91.8639 18.8343 90.5733 10.2636 90.8986 10.1303C91.4693 9.90095 100.979 19.757 100.979 19.757C100.979 19.757 112.189 3.53827 112.659 3.53827C113.053 3.53827 126.003 20.1356 126.003 20.1356C126.003 20.1356 148.051 7.42627 148.589 7.7836C148.888 7.98093 146.344 22.973 145.704 26.7223C145.939 26.9196 146.152 27.1383 146.307 27.373C147.299 28.829 147.613 31.0903 147.139 33.2823C146.616 35.6929 145.091 37.2663 143.587 37.8689L143.448 38.6316C154.147 43.8156 161.869 50.909 167.96 54.4823C176.483 59.4796 182.568 59.5383 183.192 59.7676C183.405 59.8476 182.797 63.3463 181.373 65.5063C179.949 67.677 177.965 69.4849 177.965 69.4849C183.421 69.8316 186.947 68.8023 187.4 68.9196C187.853 69.0316 187.853 82.5623 178.76 87.341C176.664 88.4396 174.787 89.0796 173.128 89.4263C174.867 95.6343 172.867 104.056 170.008 110.994C168.349 115.005 165.587 120.36 164.259 124.968C163.219 128.573 163.251 132.104 165.229 133.736C170.344 137.944 178.605 132.701 179.501 132.029C179.725 131.864 182.285 136.349 180.461 142.493C186.947 141.464 189.219 138.578 189.389 138.738C190.131 139.421 192.408 146.018 188.765 153.634C185.123 161.25 179.667 162.162 179.667 162.162C179.667 162.162 182.509 166.258 181.491 176.376C180.536 185.773 174.125 194.258 171.715 197.154C172.333 199.634 173.069 202.066 173.928 204.2C175.437 207.938 177.981 211.81 181.123 215.672C185.789 213.272 186.968 209.4 187.288 209.581C188.387 210.21 191.197 216.6 189.091 224.338C192.413 227.645 195.944 230.861 199.405 233.922C208.312 233.944 214.712 232.712 215.144 232.856C215.603 233.005 216.589 239.218 214.691 243.085C214.52 243.437 214.328 243.757 214.131 244.061C215.165 245.816 216.045 248.765 214.52 251.181C215.24 251.826 215.917 252.541 216.509 253.362C220.152 258.36 219.805 260.296 222.765 263.933C225.725 267.576 227.128 268.914 226.632 270.077C226.504 270.365 226.163 270.621 225.672 270.808L268.008 316.813C269.848 311.352 272.248 306.221 272.989 306.157C274.045 306.072 277.837 312.301 280.344 317.906C287.24 317.837 293.08 318.21 293.533 318.973C293.987 319.73 290.883 324.808 286.936 330.418ZM129.635 210.413C128.952 210.642 129.256 213.293 130.696 219.432C132.136 225.576 134.712 234.749 135.395 234.594C136.077 234.445 134.488 226.941 133.048 220.648C131.699 214.754 130.285 210.194 129.635 210.413ZM124.787 208.898C124.328 209.048 123.955 210.717 124.707 214.205C125.464 217.688 126.68 221.56 127.059 221.48C127.437 221.41 126.984 217.01 126.451 214.056C125.923 211.096 125.293 208.733 124.787 208.898ZM100.675 201.394C99.9226 201.24 99.0479 203.41 98.2479 205.256C95.7519 211.096 93.8533 220.797 94.7653 221.106C95.2186 221.256 96.5093 215.874 98.4026 210.034C100.109 204.786 101.437 201.544 100.675 201.394ZM116.184 160.381C113.453 159.698 110.493 160.306 108.147 164.397C105.645 168.754 107.357 173.485 110.493 174.408C113.603 175.314 117.469 173.88 119.213 169.634C121.208 164.77 118.808 161.037 116.184 160.381ZM121.181 169.933C119.133 175.848 113.603 177.512 110.04 176.45C106.819 175.49 103.139 172.13 105.491 165.005C107.576 158.674 113.453 157.272 116.867 158.333C120.173 159.368 123.523 163.192 121.181 169.933ZM129.411 97.4049C130.253 97.4049 130.888 96.3276 130.941 94.6156C130.957 94.2316 130.931 93.8796 130.883 93.5756C130.232 93.4796 129.715 92.7916 129.603 91.9009C129.576 91.8956 129.555 91.8849 129.523 91.8849C128.675 91.8849 127.875 93.0796 127.875 94.6156C127.875 96.157 128.563 97.4049 129.411 97.4049ZM127.309 99.6769C127.811 100.216 128.419 100.466 128.968 100.37C130.499 100.104 132.563 99.1649 132.765 94.0876C132.925 90.0023 131.352 87.7729 129.72 87.6769H129.592C128.029 87.6769 126.12 89.2769 125.885 93.7943C125.693 97.4156 126.691 99.0316 127.309 99.6769ZM131.907 100.125L131.912 100.13C131.971 100.306 131.336 100.696 130.456 101.09C130.349 101.138 130.243 101.192 130.131 101.229C129.315 101.576 128.344 101.901 127.533 102.066C123.741 102.824 122.872 101.842 122.925 101.784C123.251 101.458 124.451 101.64 127.267 101.08C126.989 100.92 126.723 100.722 126.477 100.466C125.203 99.1223 124.589 96.733 124.744 93.7356C125.037 88.2636 127.709 86.4236 129.784 86.5463C131.907 86.669 134.099 89.0903 133.901 94.1303C133.784 96.9196 133.128 98.9089 131.907 100.125ZM126.792 73.9223C130.205 72.7329 132.136 73.2983 132.083 72.8983C132.024 72.5036 129.299 71.8796 126.627 72.7863C123.955 73.693 122.419 75.1756 122.925 75.6823C123.272 76.0289 124.051 74.8823 126.792 73.9223ZM115.363 124.925C114.856 124.808 113.603 127.933 110.589 127.709C108.035 127.517 108.173 124.808 107.917 124.808C107.347 124.808 107.064 128.904 110.531 129.133C114.669 129.405 115.875 125.037 115.363 124.925ZM107.405 120.205C107.683 120.141 107.229 117.784 109.395 117.421C112.749 116.85 114.739 120.146 115.192 120.146C115.651 120.146 113.48 115.682 109.624 116.226C106.381 116.68 106.893 120.322 107.405 120.205ZM115.592 121.736C114.968 121.512 112.691 121 110.077 121.224C107.464 121.453 106.355 122.125 106.669 122.589C106.893 122.936 107.405 122.365 110.019 122.365C113.773 122.365 116.163 122.877 116.221 122.536C116.275 122.194 116.221 121.965 115.592 121.736ZM109.224 111.618C109.224 111.277 108.429 111.165 107.747 110.424C107.064 109.682 106.317 108.285 105.987 108.376C105.587 108.493 105.677 110.904 106.323 111.618C107.405 112.813 109.224 111.96 109.224 111.618ZM107.576 102.525C107.747 100.701 107.176 98.2583 107.405 98.0876C107.672 97.8849 109.053 99.7356 108.888 102.296C108.787 103.72 107.347 105.821 106.952 105.762C106.552 105.704 107.405 104.338 107.576 102.525Z" fill="#181210"/>
</g>
</g>
</svg>
